<mxfile host="app.diagrams.net" agent="Mozilla/5.0 (Windows NT 10.0; Win64; x64) AppleWebKit/537.36 (KHTML, like Gecko) Chrome/132.0.0.0 Safari/537.36" version="26.0.11">
  <diagram name="Página-1" id="-1j-9Xx8OZhU-RbtYIx3">
    <mxGraphModel dx="1431" dy="643" grid="1" gridSize="10" guides="1" tooltips="1" connect="1" arrows="1" fold="1" page="1" pageScale="1" pageWidth="827" pageHeight="1169" math="0" shadow="0">
      <root>
        <mxCell id="0" />
        <mxCell id="1" parent="0" />
        <mxCell id="OsBQG-jelnCSii80OH9A-47" value="" style="rounded=1;arcSize=10;dashed=1;fillColor=none;gradientColor=none;dashPattern=1 1;strokeWidth=2;" parent="1" vertex="1">
          <mxGeometry x="160" y="230" width="1410" height="340" as="geometry" />
        </mxCell>
        <mxCell id="OsBQG-jelnCSii80OH9A-3" value="" style="group" parent="1" vertex="1" connectable="0">
          <mxGeometry y="320" width="80" height="118" as="geometry" />
        </mxCell>
        <mxCell id="OsBQG-jelnCSii80OH9A-1" value="" style="sketch=0;outlineConnect=0;fontColor=#232F3E;gradientColor=none;fillColor=#232F3D;strokeColor=none;dashed=0;verticalLabelPosition=bottom;verticalAlign=top;align=center;html=1;fontSize=12;fontStyle=0;aspect=fixed;pointerEvents=1;shape=mxgraph.aws4.user;" parent="OsBQG-jelnCSii80OH9A-3" vertex="1">
          <mxGeometry width="80" height="80" as="geometry" />
        </mxCell>
        <mxCell id="OsBQG-jelnCSii80OH9A-2" value="Data&lt;br&gt;Partnership" style="text;html=1;align=center;verticalAlign=middle;resizable=0;points=[];autosize=1;strokeColor=none;fillColor=none;" parent="OsBQG-jelnCSii80OH9A-3" vertex="1">
          <mxGeometry y="78" width="80" height="40" as="geometry" />
        </mxCell>
        <mxCell id="OsBQG-jelnCSii80OH9A-8" value="Carga de&lt;div&gt;datos&lt;/div&gt;" style="text;html=1;align=center;verticalAlign=middle;resizable=0;points=[];autosize=1;strokeColor=none;fillColor=none;" parent="1" vertex="1">
          <mxGeometry x="80" y="320" width="70" height="40" as="geometry" />
        </mxCell>
        <mxCell id="OsBQG-jelnCSii80OH9A-44" style="edgeStyle=orthogonalEdgeStyle;rounded=0;orthogonalLoop=1;jettySize=auto;html=1;entryX=0;entryY=0.5;entryDx=0;entryDy=0;" parent="1" source="OsBQG-jelnCSii80OH9A-10" target="OsBQG-jelnCSii80OH9A-11" edge="1">
          <mxGeometry relative="1" as="geometry" />
        </mxCell>
        <mxCell id="AC6ZQEIpB50H-E7p41AO-2" style="edgeStyle=orthogonalEdgeStyle;rounded=0;orthogonalLoop=1;jettySize=auto;html=1;entryX=0;entryY=0.5;entryDx=0;entryDy=0;" edge="1" parent="1" source="OsBQG-jelnCSii80OH9A-11" target="OsBQG-jelnCSii80OH9A-13">
          <mxGeometry relative="1" as="geometry" />
        </mxCell>
        <mxCell id="OsBQG-jelnCSii80OH9A-11" value="Verificación de proceso anonimizado" style="rounded=0;whiteSpace=wrap;html=1;" parent="1" vertex="1">
          <mxGeometry x="440" y="330" width="120" height="60" as="geometry" />
        </mxCell>
        <mxCell id="OsBQG-jelnCSii80OH9A-16" style="edgeStyle=orthogonalEdgeStyle;rounded=0;orthogonalLoop=1;jettySize=auto;html=1;" parent="1" source="OsBQG-jelnCSii80OH9A-13" target="OsBQG-jelnCSii80OH9A-15" edge="1">
          <mxGeometry relative="1" as="geometry" />
        </mxCell>
        <mxCell id="OsBQG-jelnCSii80OH9A-13" value="Estructuración de datos" style="rounded=0;whiteSpace=wrap;html=1;" parent="1" vertex="1">
          <mxGeometry x="600" y="330" width="120" height="60" as="geometry" />
        </mxCell>
        <mxCell id="AC6ZQEIpB50H-E7p41AO-44" style="edgeStyle=orthogonalEdgeStyle;rounded=0;orthogonalLoop=1;jettySize=auto;html=1;" edge="1" parent="1" source="OsBQG-jelnCSii80OH9A-15" target="OsBQG-jelnCSii80OH9A-31">
          <mxGeometry relative="1" as="geometry">
            <Array as="points">
              <mxPoint x="770" y="488" />
              <mxPoint x="770" y="390" />
            </Array>
          </mxGeometry>
        </mxCell>
        <mxCell id="OsBQG-jelnCSii80OH9A-15" value="Almacenamiento datos anonimos y tokenizados" style="shape=cylinder3;whiteSpace=wrap;html=1;boundedLbl=1;backgroundOutline=1;size=15;" parent="1" vertex="1">
          <mxGeometry x="605" y="438" width="110" height="100" as="geometry" />
        </mxCell>
        <mxCell id="OsBQG-jelnCSii80OH9A-22" value="" style="group" parent="1" vertex="1" connectable="0">
          <mxGeometry x="1018" y="80" width="80" height="118" as="geometry" />
        </mxCell>
        <mxCell id="OsBQG-jelnCSii80OH9A-23" value="" style="sketch=0;outlineConnect=0;fontColor=#232F3E;gradientColor=none;fillColor=#232F3D;strokeColor=none;dashed=0;verticalLabelPosition=bottom;verticalAlign=top;align=center;html=1;fontSize=12;fontStyle=0;aspect=fixed;pointerEvents=1;shape=mxgraph.aws4.user;" parent="OsBQG-jelnCSii80OH9A-22" vertex="1">
          <mxGeometry width="80" height="80" as="geometry" />
        </mxCell>
        <mxCell id="OsBQG-jelnCSii80OH9A-24" value="IA Developer&amp;nbsp;&lt;div&gt;- Enterprise&lt;/div&gt;" style="text;html=1;align=center;verticalAlign=middle;resizable=0;points=[];autosize=1;strokeColor=none;fillColor=none;" parent="OsBQG-jelnCSii80OH9A-22" vertex="1">
          <mxGeometry x="-7.181818181818182" y="80" width="100" height="40" as="geometry" />
        </mxCell>
        <mxCell id="OsBQG-jelnCSii80OH9A-25" value="" style="group" parent="1" vertex="1" connectable="0">
          <mxGeometry x="1600" y="350" width="82.91" height="118" as="geometry" />
        </mxCell>
        <mxCell id="OsBQG-jelnCSii80OH9A-26" value="" style="sketch=0;outlineConnect=0;fontColor=#232F3E;gradientColor=none;fillColor=#232F3D;strokeColor=none;dashed=0;verticalLabelPosition=bottom;verticalAlign=top;align=center;html=1;fontSize=12;fontStyle=0;aspect=fixed;pointerEvents=1;shape=mxgraph.aws4.user;" parent="OsBQG-jelnCSii80OH9A-25" vertex="1">
          <mxGeometry x="2.91" width="80" height="80" as="geometry" />
        </mxCell>
        <mxCell id="OsBQG-jelnCSii80OH9A-27" value="Agente de&lt;div&gt;Cuenta&lt;/div&gt;" style="text;html=1;align=center;verticalAlign=middle;resizable=0;points=[];autosize=1;strokeColor=none;fillColor=none;" parent="OsBQG-jelnCSii80OH9A-25" vertex="1">
          <mxGeometry x="2.909090909090909" y="80" width="80" height="40" as="geometry" />
        </mxCell>
        <mxCell id="OsBQG-jelnCSii80OH9A-28" value="Sistema consulta de datos" style="rounded=0;whiteSpace=wrap;html=1;" parent="1" vertex="1">
          <mxGeometry x="800" y="260" width="120" height="60" as="geometry" />
        </mxCell>
        <mxCell id="OsBQG-jelnCSii80OH9A-31" value="Descarga de datos" style="rounded=0;whiteSpace=wrap;html=1;" parent="1" vertex="1">
          <mxGeometry x="800" y="360" width="120" height="60" as="geometry" />
        </mxCell>
        <mxCell id="OsBQG-jelnCSii80OH9A-45" value="" style="group" parent="1" vertex="1" connectable="0">
          <mxGeometry x="200" y="290" width="200" height="140" as="geometry" />
        </mxCell>
        <mxCell id="OsBQG-jelnCSii80OH9A-17" value="" style="rounded=1;arcSize=10;dashed=1;fillColor=none;gradientColor=none;dashPattern=8 3 1 3;strokeWidth=2;" parent="OsBQG-jelnCSii80OH9A-45" vertex="1">
          <mxGeometry width="200" height="140" as="geometry" />
        </mxCell>
        <mxCell id="OsBQG-jelnCSii80OH9A-10" value="Pipeline anonimizado" style="rounded=0;whiteSpace=wrap;html=1;" parent="OsBQG-jelnCSii80OH9A-45" vertex="1">
          <mxGeometry x="40" y="40" width="120" height="60" as="geometry" />
        </mxCell>
        <mxCell id="OsBQG-jelnCSii80OH9A-18" value="Espacio privado multi-tenant" style="text;html=1;align=center;verticalAlign=middle;resizable=0;points=[];autosize=1;strokeColor=none;fillColor=none;" parent="OsBQG-jelnCSii80OH9A-45" vertex="1">
          <mxGeometry x="15" width="170" height="30" as="geometry" />
        </mxCell>
        <mxCell id="OsBQG-jelnCSii80OH9A-48" value="SaludTech de los Alpes" style="text;html=1;align=center;verticalAlign=middle;resizable=0;points=[];autosize=1;strokeColor=none;fillColor=none;" parent="1" vertex="1">
          <mxGeometry x="190" y="230" width="150" height="30" as="geometry" />
        </mxCell>
        <mxCell id="AC6ZQEIpB50H-E7p41AO-1" style="edgeStyle=orthogonalEdgeStyle;rounded=0;orthogonalLoop=1;jettySize=auto;html=1;" edge="1" parent="1" source="OsBQG-jelnCSii80OH9A-1" target="OsBQG-jelnCSii80OH9A-17">
          <mxGeometry relative="1" as="geometry" />
        </mxCell>
        <mxCell id="AC6ZQEIpB50H-E7p41AO-38" style="edgeStyle=orthogonalEdgeStyle;rounded=0;orthogonalLoop=1;jettySize=auto;html=1;" edge="1" parent="1" source="AC6ZQEIpB50H-E7p41AO-9" target="OsBQG-jelnCSii80OH9A-34">
          <mxGeometry relative="1" as="geometry" />
        </mxCell>
        <mxCell id="AC6ZQEIpB50H-E7p41AO-9" value="Modulo provisionamiento de ambiente cliente" style="rounded=0;whiteSpace=wrap;html=1;" vertex="1" parent="1">
          <mxGeometry x="1400" y="360" width="120" height="60" as="geometry" />
        </mxCell>
        <mxCell id="AC6ZQEIpB50H-E7p41AO-14" style="edgeStyle=orthogonalEdgeStyle;rounded=0;orthogonalLoop=1;jettySize=auto;html=1;entryX=1;entryY=0.5;entryDx=0;entryDy=0;" edge="1" parent="1" source="OsBQG-jelnCSii80OH9A-26" target="AC6ZQEIpB50H-E7p41AO-9">
          <mxGeometry relative="1" as="geometry" />
        </mxCell>
        <mxCell id="AC6ZQEIpB50H-E7p41AO-17" value="" style="endArrow=none;dashed=1;html=1;rounded=0;" edge="1" parent="1" source="OsBQG-jelnCSii80OH9A-23" target="OsBQG-jelnCSii80OH9A-26">
          <mxGeometry width="50" height="50" relative="1" as="geometry">
            <mxPoint x="1500" y="140" as="sourcePoint" />
            <mxPoint x="1550" y="90" as="targetPoint" />
            <Array as="points">
              <mxPoint x="1643" y="120" />
            </Array>
          </mxGeometry>
        </mxCell>
        <mxCell id="AC6ZQEIpB50H-E7p41AO-37" style="edgeStyle=orthogonalEdgeStyle;rounded=0;orthogonalLoop=1;jettySize=auto;html=1;entryX=0;entryY=0.5;entryDx=0;entryDy=0;" edge="1" parent="1" source="AC6ZQEIpB50H-E7p41AO-32" target="OsBQG-jelnCSii80OH9A-34">
          <mxGeometry relative="1" as="geometry" />
        </mxCell>
        <mxCell id="AC6ZQEIpB50H-E7p41AO-40" style="edgeStyle=orthogonalEdgeStyle;rounded=0;orthogonalLoop=1;jettySize=auto;html=1;entryX=1;entryY=0.5;entryDx=0;entryDy=0;" edge="1" parent="1" source="AC6ZQEIpB50H-E7p41AO-32" target="AC6ZQEIpB50H-E7p41AO-8">
          <mxGeometry relative="1" as="geometry" />
        </mxCell>
        <mxCell id="AC6ZQEIpB50H-E7p41AO-33" value="" style="endArrow=none;dashed=1;html=1;rounded=0;" edge="1" parent="1">
          <mxGeometry width="50" height="50" relative="1" as="geometry">
            <mxPoint x="767" y="610" as="sourcePoint" />
            <mxPoint x="767" y="200" as="targetPoint" />
          </mxGeometry>
        </mxCell>
        <mxCell id="OsBQG-jelnCSii80OH9A-43" value="" style="group" parent="1" vertex="1" connectable="0">
          <mxGeometry x="1160" y="330" width="200" height="140" as="geometry" />
        </mxCell>
        <mxCell id="OsBQG-jelnCSii80OH9A-37" value="Consulta de datos columnar" style="rounded=0;whiteSpace=wrap;html=1;" parent="OsBQG-jelnCSii80OH9A-43" vertex="1">
          <mxGeometry x="40" y="40" width="120" height="60" as="geometry" />
        </mxCell>
        <mxCell id="OsBQG-jelnCSii80OH9A-35" value="Ambiente virtual Enterprise" style="text;html=1;align=center;verticalAlign=middle;resizable=0;points=[];autosize=1;strokeColor=none;fillColor=none;" parent="OsBQG-jelnCSii80OH9A-43" vertex="1">
          <mxGeometry x="15" y="-10" width="170" height="30" as="geometry" />
        </mxCell>
        <mxCell id="OsBQG-jelnCSii80OH9A-34" value="" style="rounded=1;arcSize=10;dashed=1;fillColor=none;gradientColor=none;dashPattern=8 3 1 3;strokeWidth=2;" parent="OsBQG-jelnCSii80OH9A-43" vertex="1">
          <mxGeometry y="-10" width="200" height="140" as="geometry" />
        </mxCell>
        <mxCell id="AC6ZQEIpB50H-E7p41AO-8" value="Modulo entrenamiento de clientes" style="rounded=0;whiteSpace=wrap;html=1;" vertex="1" parent="1">
          <mxGeometry x="800" y="478" width="120" height="60" as="geometry" />
        </mxCell>
        <mxCell id="AC6ZQEIpB50H-E7p41AO-47" style="edgeStyle=orthogonalEdgeStyle;rounded=0;orthogonalLoop=1;jettySize=auto;html=1;entryX=1;entryY=0.5;entryDx=0;entryDy=0;" edge="1" parent="1" source="AC6ZQEIpB50H-E7p41AO-32" target="OsBQG-jelnCSii80OH9A-28">
          <mxGeometry relative="1" as="geometry" />
        </mxCell>
        <mxCell id="AC6ZQEIpB50H-E7p41AO-48" style="edgeStyle=orthogonalEdgeStyle;rounded=0;orthogonalLoop=1;jettySize=auto;html=1;entryX=1;entryY=0.5;entryDx=0;entryDy=0;" edge="1" parent="1" source="AC6ZQEIpB50H-E7p41AO-32" target="OsBQG-jelnCSii80OH9A-31">
          <mxGeometry relative="1" as="geometry" />
        </mxCell>
        <mxCell id="AC6ZQEIpB50H-E7p41AO-32" value="Venta de licencia" style="rounded=0;whiteSpace=wrap;html=1;" vertex="1" parent="1">
          <mxGeometry x="1000" y="360" width="120" height="60" as="geometry" />
        </mxCell>
        <mxCell id="AC6ZQEIpB50H-E7p41AO-46" style="edgeStyle=orthogonalEdgeStyle;rounded=0;orthogonalLoop=1;jettySize=auto;html=1;entryX=1;entryY=0;entryDx=0;entryDy=32.5;entryPerimeter=0;" edge="1" parent="1" source="OsBQG-jelnCSii80OH9A-28" target="OsBQG-jelnCSii80OH9A-15">
          <mxGeometry relative="1" as="geometry">
            <Array as="points">
              <mxPoint x="740" y="290" />
              <mxPoint x="740" y="471" />
            </Array>
          </mxGeometry>
        </mxCell>
        <mxCell id="AC6ZQEIpB50H-E7p41AO-49" style="edgeStyle=orthogonalEdgeStyle;rounded=0;orthogonalLoop=1;jettySize=auto;html=1;" edge="1" parent="1" source="OsBQG-jelnCSii80OH9A-24" target="AC6ZQEIpB50H-E7p41AO-32">
          <mxGeometry relative="1" as="geometry" />
        </mxCell>
      </root>
    </mxGraphModel>
  </diagram>
</mxfile>
